<?xml version="1.0" encoding="us-ascii" standalone="no"?><svg xmlns="http://www.w3.org/2000/svg" xmlns:xlink="http://www.w3.org/1999/xlink" contentStyleType="text/css" height="479px" preserveAspectRatio="none" style="width:278px;height:479px;background:#FFFFFF;" version="1.1" viewBox="0 0 278 479" width="278px" zoomAndPan="magnify"><defs/><g><!--class Icon--><g id="elem_Icon"><rect codeLine="8" fill="#FFFFFF" height="357.6406" id="Icon" rx="2.5" ry="2.5" style="stroke:#555555;stroke-width:0.5;" width="250" x="21.5" y="7"/><rect fill="#808080" height="32" rx="2.5" ry="2.5" style="stroke:#808080;stroke-width:0.5;" width="250" x="21.5" y="7"/><rect fill="#808080" height="2.5" style="stroke:#808080;stroke-width:0.5;" width="250" x="21.5" y="36.5"/><rect codeLine="8" fill="none" height="357.6406" id="Icon" rx="2.5" ry="2.5" style="stroke:#555555;stroke-width:0.5;" width="250" x="21.5" y="7"/><ellipse cx="127.75" cy="23" fill="#ADD1B2" rx="11" ry="11" style="stroke:#181818;stroke-width:1.0;"/><path d="M130.7188,28.6406 Q130.1406,28.9375 129.5,29.0781 Q128.8594,29.2344 128.1563,29.2344 Q125.6563,29.2344 124.3281,27.5938 Q123.0156,25.9375 123.0156,22.8125 Q123.0156,19.6875 124.3281,18.0313 Q125.6563,16.375 128.1563,16.375 Q128.8594,16.375 129.5,16.5313 Q130.1563,16.6875 130.7188,16.9844 L130.7188,19.7031 Q130.0938,19.125 129.5,18.8594 Q128.9063,18.5781 128.2813,18.5781 Q126.9375,18.5781 126.25,19.6563 Q125.5625,20.7188 125.5625,22.8125 Q125.5625,24.9063 126.25,25.9844 Q126.9375,27.0469 128.2813,27.0469 Q128.9063,27.0469 129.5,26.7813 Q130.0938,26.5 130.7188,25.9219 L130.7188,28.6406 Z " fill="#000000"/><text fill="#000000" font-family="sans-serif" font-size="14" lengthAdjust="spacing" textLength="29" x="148.25" y="27.8467">Icon</text><line style="stroke:#555555;stroke-width:0.5;" x1="22.5" x2="270.5" y1="39" y2="39"/><rect fill="none" height="6" style="stroke:#C82930;stroke-width:1.0;" width="6" x="29.5" y="49.6484"/><text fill="#000000" font-family="sans-serif" font-size="14" lengthAdjust="spacing" textLength="197" x="41.5" y="55.9951">User Layer : Array of LV Class</text><rect fill="none" height="6" style="stroke:#C82930;stroke-width:1.0;" width="6" x="29.5" y="65.9453"/><text fill="#000000" font-family="sans-serif" font-size="14" lengthAdjust="spacing" textLength="115" x="41.5" y="72.292">Active Layer : I32</text><rect fill="none" height="6" style="stroke:#C82930;stroke-width:1.0;" width="6" x="29.5" y="82.2422"/><text fill="#000000" font-family="sans-serif" font-size="14" lengthAdjust="spacing" textLength="167" x="41.5" y="88.5889">Layer Locked? : Boolean</text><rect fill="none" height="6" style="stroke:#C82930;stroke-width:1.0;" width="6" x="29.5" y="98.5391"/><text fill="#000000" font-family="sans-serif" font-size="14" lengthAdjust="spacing" textLength="133" x="41.5" y="104.8857">Icon Text : LV Class</text><rect fill="none" height="6" style="stroke:#C82930;stroke-width:1.0;" width="6" x="29.5" y="114.8359"/><text fill="#000000" font-family="sans-serif" font-size="14" lengthAdjust="spacing" textLength="135" x="41.5" y="121.1826">Template : LV Class</text><line style="stroke:#555555;stroke-width:0.5;" x1="22.5" x2="270.5" y1="128.4844" y2="128.4844"/><ellipse cx="32.5" cy="142.1328" fill="#84BE84" rx="3" ry="3" style="stroke:#038048;stroke-width:1.0;"/><text fill="#000000" font-family="sans-serif" font-size="14" lengthAdjust="spacing" text-decoration="underline" textLength="122" x="41.5" y="145.4795">CreateNewLayer()</text><ellipse cx="32.5" cy="158.4297" fill="#84BE84" rx="3" ry="3" style="stroke:#038048;stroke-width:1.0;"/><text fill="#000000" font-family="sans-serif" font-size="14" lengthAdjust="spacing" text-decoration="underline" textLength="92" x="41.5" y="161.7764">DeleteLayer()</text><ellipse cx="32.5" cy="174.7266" fill="#84BE84" rx="3" ry="3" style="stroke:#038048;stroke-width:1.0;"/><text fill="#000000" font-family="sans-serif" font-size="14" lengthAdjust="spacing" text-decoration="underline" textLength="120" x="41.5" y="178.0732">Apply Body Text()</text><ellipse cx="32.5" cy="191.0234" fill="#84BE84" rx="3" ry="3" style="stroke:#038048;stroke-width:1.0;"/><text fill="#000000" font-family="sans-serif" font-size="14" lengthAdjust="spacing" textLength="159" x="41.5" y="194.3701">Get_Active User Layer()</text><ellipse cx="32.5" cy="207.3203" fill="#84BE84" rx="3" ry="3" style="stroke:#038048;stroke-width:1.0;"/><text fill="#000000" font-family="sans-serif" font-size="14" lengthAdjust="spacing" textLength="145" x="41.5" y="210.667">GET_All User Layers()</text><ellipse cx="32.5" cy="223.6172" fill="#84BE84" rx="3" ry="3" style="stroke:#038048;stroke-width:1.0;"/><text fill="#000000" font-family="sans-serif" font-size="14" lengthAdjust="spacing" textLength="122" x="41.5" y="226.9639">GET_UserLayers()</text><ellipse cx="32.5" cy="239.9141" fill="#84BE84" rx="3" ry="3" style="stroke:#038048;stroke-width:1.0;"/><text fill="#000000" font-family="sans-serif" font-size="14" lengthAdjust="spacing" textLength="224" x="41.5" y="243.2607">GET_LayersLocked_ActiveLayer()</text><ellipse cx="32.5" cy="256.2109" fill="#84BE84" rx="3" ry="3" style="stroke:#038048;stroke-width:1.0;"/><text fill="#000000" font-family="sans-serif" font-size="14" lengthAdjust="spacing" textLength="142" x="41.5" y="259.5576">GET_IconTextClass()</text><ellipse cx="32.5" cy="272.5078" fill="#84BE84" rx="3" ry="3" style="stroke:#038048;stroke-width:1.0;"/><text fill="#000000" font-family="sans-serif" font-size="14" lengthAdjust="spacing" textLength="148" x="41.5" y="275.8545">GET_TemplateClass()</text><ellipse cx="32.5" cy="288.8047" fill="#84BE84" rx="3" ry="3" style="stroke:#038048;stroke-width:1.0;"/><text fill="#000000" font-family="sans-serif" font-size="14" lengthAdjust="spacing" textLength="120" x="41.5" y="292.1514">SET_UserLayers()</text><ellipse cx="32.5" cy="305.1016" fill="#84BE84" rx="3" ry="3" style="stroke:#038048;stroke-width:1.0;"/><text fill="#000000" font-family="sans-serif" font-size="14" lengthAdjust="spacing" textLength="121" x="41.5" y="308.4482">SET_ActiveLayer()</text><ellipse cx="32.5" cy="321.3984" fill="#84BE84" rx="3" ry="3" style="stroke:#038048;stroke-width:1.0;"/><text fill="#000000" font-family="sans-serif" font-size="14" lengthAdjust="spacing" textLength="178" x="41.5" y="324.7451">SET_Locked_ActiveLayer()</text><ellipse cx="32.5" cy="337.6953" fill="#84BE84" rx="3" ry="3" style="stroke:#038048;stroke-width:1.0;"/><text fill="#000000" font-family="sans-serif" font-size="14" lengthAdjust="spacing" textLength="140" x="41.5" y="341.042">SET_IconTextClass()</text><ellipse cx="32.5" cy="353.9922" fill="#84BE84" rx="3" ry="3" style="stroke:#038048;stroke-width:1.0;"/><text fill="#000000" font-family="sans-serif" font-size="14" lengthAdjust="spacing" textLength="146" x="41.5" y="357.3389">SET_TemplateClass()</text></g><!--class Icon Framework--><g id="elem_Icon Framework"><rect fill="#FFFFFF" height="48" id="Icon Framework" rx="2.5" ry="2.5" style="stroke:#555555;stroke-width:0.5;" width="141" x="7" y="424.64"/><rect fill="#808080" height="32" rx="2.5" ry="2.5" style="stroke:#808080;stroke-width:0.5;" width="141" x="7" y="424.64"/><rect fill="#808080" height="2.5" style="stroke:#808080;stroke-width:0.5;" width="141" x="7" y="454.14"/><rect fill="none" height="48" id="Icon Framework" rx="2.5" ry="2.5" style="stroke:#555555;stroke-width:0.5;" width="141" x="7" y="424.64"/><ellipse cx="22" cy="440.64" fill="#ADD1B2" rx="11" ry="11" style="stroke:#181818;stroke-width:1.0;"/><path d="M24.9688,446.2806 Q24.3906,446.5775 23.75,446.7181 Q23.1094,446.8744 22.4063,446.8744 Q19.9063,446.8744 18.5781,445.2338 Q17.2656,443.5775 17.2656,440.4525 Q17.2656,437.3275 18.5781,435.6713 Q19.9063,434.015 22.4063,434.015 Q23.1094,434.015 23.75,434.1713 Q24.4063,434.3275 24.9688,434.6244 L24.9688,437.3431 Q24.3438,436.765 23.75,436.4994 Q23.1563,436.2181 22.5313,436.2181 Q21.1875,436.2181 20.5,437.2963 Q19.8125,438.3588 19.8125,440.4525 Q19.8125,442.5463 20.5,443.6244 Q21.1875,444.6869 22.5313,444.6869 Q23.1563,444.6869 23.75,444.4213 Q24.3438,444.14 24.9688,443.5619 L24.9688,446.2806 Z " fill="#000000"/><text fill="#000000" font-family="sans-serif" font-size="14" lengthAdjust="spacing" textLength="109" x="36" y="445.4867">Icon Framework</text><line style="stroke:#555555;stroke-width:0.5;" x1="8" x2="147" y1="456.64" y2="456.64"/><line style="stroke:#555555;stroke-width:0.5;" x1="8" x2="147" y1="464.64" y2="464.64"/></g><!--class Layer--><g id="elem_Layer"><rect fill="#FFFFFF" height="48" id="Layer" rx="2.5" ry="2.5" style="stroke:#555555;stroke-width:0.5;" width="68" x="182.5" y="424.64"/><rect fill="#808080" height="32" rx="2.5" ry="2.5" style="stroke:#808080;stroke-width:0.5;" width="68" x="182.5" y="424.64"/><rect fill="#808080" height="2.5" style="stroke:#808080;stroke-width:0.5;" width="68" x="182.5" y="454.14"/><rect fill="none" height="48" id="Layer" rx="2.5" ry="2.5" style="stroke:#555555;stroke-width:0.5;" width="68" x="182.5" y="424.64"/><ellipse cx="197.5" cy="440.64" fill="#ADD1B2" rx="11" ry="11" style="stroke:#181818;stroke-width:1.0;"/><path d="M200.4688,446.2806 Q199.8906,446.5775 199.25,446.7181 Q198.6094,446.8744 197.9063,446.8744 Q195.4063,446.8744 194.0781,445.2338 Q192.7656,443.5775 192.7656,440.4525 Q192.7656,437.3275 194.0781,435.6713 Q195.4063,434.015 197.9063,434.015 Q198.6094,434.015 199.25,434.1713 Q199.9063,434.3275 200.4688,434.6244 L200.4688,437.3431 Q199.8438,436.765 199.25,436.4994 Q198.6563,436.2181 198.0313,436.2181 Q196.6875,436.2181 196,437.2963 Q195.3125,438.3588 195.3125,440.4525 Q195.3125,442.5463 196,443.6244 Q196.6875,444.6869 198.0313,444.6869 Q198.6563,444.6869 199.25,444.4213 Q199.8438,444.14 200.4688,443.5619 L200.4688,446.2806 Z " fill="#000000"/><text fill="#000000" font-family="sans-serif" font-size="14" lengthAdjust="spacing" textLength="36" x="211.5" y="445.4867">Layer</text><line style="stroke:#555555;stroke-width:0.5;" x1="183.5" x2="249.5" y1="456.64" y2="456.64"/><line style="stroke:#555555;stroke-width:0.5;" x1="183.5" x2="249.5" y1="464.64" y2="464.64"/></g><!--reverse link Icon to Icon Framework--><g id="link_Icon_Icon Framework"><path codeLine="30" d="M96.2616,376.7111 C90.1016,400.0011 87.64,409.31 83.68,424.26 " fill="none" id="Icon-backto-Icon Framework" style="stroke:#181818;stroke-width:1.0;"/><polygon fill="#181818" points="99.33,365.11,93.9288,369.8877,96.2616,376.7111,101.6628,371.9333,99.33,365.11" style="stroke:#181818;stroke-width:1.0;"/></g><!--reverse link Icon to Layer--><g id="link_Icon_Layer"><path codeLine="32" d="M197.4602,376.6999 C203.7102,399.9899 206.21,409.31 210.23,424.26 " fill="none" id="Icon-backto-Layer" style="stroke:#181818;stroke-width:1.0;"/><polygon fill="none" points="194.35,365.11,192.0418,371.9417,197.4602,376.6999,199.7684,369.8682,194.35,365.11" style="stroke:#181818;stroke-width:1.0;"/></g><!--SRC=[XP9TQy8m58RlyoiExcOV2B8n6Dv8TNCJP3TrkvKiFMwbQKv9ihaY_lSbQRLgrQKqq3mFvpqznA05nNCq1HSOOy4rjwIXpqoMAl-LmqXoOuPSP9-QlbKo8kc4Yt5OBOrqWhfMxiCwLCQaR2tqmZeKNf2x6gt0Xvv_s8vjgN0lV92rb4EIQXGs9SM4hmATYI3LWHLRBLAKoHgwRmOrJ7dfzZv4MlCIQ07JzogsyI9NvWUtvkJkjc7LuPH4Xid0mI6HHAuQmQV237-jW-tICymBoItkGMEvJSKQLZdQBtBQpKYZarvn6U8khuuvZoZHuXaXAWfPkWQJClJZfIrxHZklVxEPohxnD9j7KkvWq-AUdK3LSJMdEkbuXf-NRo_CeaKtyshJ-7I-HwSYFVkdg_XiL_6HhjYQrRVjkjkjBXwCtGt59UcimpQGF0nvxkmF]--></g></svg>