<?xml version="1.0" encoding="us-ascii" standalone="no"?><svg xmlns="http://www.w3.org/2000/svg" xmlns:xlink="http://www.w3.org/1999/xlink" contentStyleType="text/css" height="316px" preserveAspectRatio="none" style="width:199px;height:316px;background:#FFFFFF;" version="1.1" viewBox="0 0 199 316" width="199px" zoomAndPan="magnify"><defs/><g><!--class Icon Framework--><g id="elem_Icon Framework"><rect codeLine="8" fill="#FFFFFF" height="194.6719" id="Icon Framework" rx="2.5" ry="2.5" style="stroke:#555555;stroke-width:0.5;" width="185" x="7" y="115"/><rect fill="#808080" height="32" rx="2.5" ry="2.5" style="stroke:#808080;stroke-width:0.5;" width="185" x="7" y="115"/><rect fill="#808080" height="2.5" style="stroke:#808080;stroke-width:0.5;" width="185" x="7" y="144.5"/><rect codeLine="8" fill="none" height="194.6719" id="Icon Framework" rx="2.5" ry="2.5" style="stroke:#555555;stroke-width:0.5;" width="185" x="7" y="115"/><ellipse cx="41.8" cy="131" fill="#ADD1B2" rx="11" ry="11" style="stroke:#181818;stroke-width:1.0;"/><path d="M44.7688,136.6406 Q44.1906,136.9375 43.55,137.0781 Q42.9094,137.2344 42.2063,137.2344 Q39.7063,137.2344 38.3781,135.5938 Q37.0656,133.9375 37.0656,130.8125 Q37.0656,127.6875 38.3781,126.0313 Q39.7063,124.375 42.2063,124.375 Q42.9094,124.375 43.55,124.5313 Q44.2063,124.6875 44.7688,124.9844 L44.7688,127.7031 Q44.1438,127.125 43.55,126.8594 Q42.9563,126.5781 42.3313,126.5781 Q40.9875,126.5781 40.3,127.6563 Q39.6125,128.7188 39.6125,130.8125 Q39.6125,132.9063 40.3,133.9844 Q40.9875,135.0469 42.3313,135.0469 Q42.9563,135.0469 43.55,134.7813 Q44.1438,134.5 44.7688,133.9219 L44.7688,136.6406 Z " fill="#000000"/><text fill="#000000" font-family="sans-serif" font-size="14" lengthAdjust="spacing" textLength="109" x="60.2" y="135.8467">Icon Framework</text><line style="stroke:#555555;stroke-width:0.5;" x1="8" x2="191" y1="147" y2="147"/><rect fill="none" height="6" style="stroke:#C82930;stroke-width:1.0;" width="6" x="15" y="157.6484"/><text fill="#000000" font-family="sans-serif" font-size="14" lengthAdjust="spacing" textLength="131" x="27" y="163.9951">Body Text : Cluster</text><rect fill="none" height="6" style="stroke:#C82930;stroke-width:1.0;" width="6" x="15" y="173.9453"/><text fill="#000000" font-family="sans-serif" font-size="14" lengthAdjust="spacing" textLength="93" x="27" y="180.292">Name : String</text><rect fill="none" height="6" style="stroke:#C82930;stroke-width:1.0;" width="6" x="15" y="190.2422"/><text fill="#000000" font-family="sans-serif" font-size="14" lengthAdjust="spacing" textLength="75" x="27" y="196.5889">Path : Path</text><line style="stroke:#555555;stroke-width:0.5;" x1="8" x2="191" y1="203.8906" y2="203.8906"/><ellipse cx="18" cy="217.5391" fill="#84BE84" rx="3" ry="3" style="stroke:#038048;stroke-width:1.0;"/><text fill="#000000" font-family="sans-serif" font-size="14" lengthAdjust="spacing" text-decoration="underline" textLength="75" x="27" y="220.8857">SET_Path()</text><ellipse cx="18" cy="233.8359" fill="#84BE84" rx="3" ry="3" style="stroke:#038048;stroke-width:1.0;"/><text fill="#000000" font-family="sans-serif" font-size="14" lengthAdjust="spacing" text-decoration="underline" textLength="77" x="27" y="237.1826">GET_Path()</text><ellipse cx="18" cy="250.1328" fill="#84BE84" rx="3" ry="3" style="stroke:#038048;stroke-width:1.0;"/><text fill="#000000" font-family="sans-serif" font-size="14" lengthAdjust="spacing" text-decoration="underline" textLength="121" x="27" y="253.4795">CreateBodyText()</text><ellipse cx="18" cy="266.4297" fill="#84BE84" rx="3" ry="3" style="stroke:#038048;stroke-width:1.0;"/><text fill="#000000" font-family="sans-serif" font-size="14" lengthAdjust="spacing" text-decoration="underline" textLength="159" x="27" y="269.7764">BodyTextCoordinates()</text><ellipse cx="18" cy="282.7266" fill="#84BE84" rx="3" ry="3" style="stroke:#038048;stroke-width:1.0;"/><text fill="#000000" font-family="sans-serif" font-size="14" lengthAdjust="spacing" textLength="109" x="27" y="286.0732">SET_BodyText()</text><ellipse cx="18" cy="299.0234" fill="#84BE84" rx="3" ry="3" style="stroke:#038048;stroke-width:1.0;"/><text fill="#000000" font-family="sans-serif" font-size="14" lengthAdjust="spacing" textLength="111" x="27" y="302.3701">GET_BodyText()</text></g><!--class Layer--><g id="elem_Layer"><rect fill="#FFFFFF" height="48" id="Layer" rx="2.5" ry="2.5" style="stroke:#555555;stroke-width:0.5;" width="68" x="65.5" y="7"/><rect fill="#808080" height="32" rx="2.5" ry="2.5" style="stroke:#808080;stroke-width:0.5;" width="68" x="65.5" y="7"/><rect fill="#808080" height="2.5" style="stroke:#808080;stroke-width:0.5;" width="68" x="65.5" y="36.5"/><rect fill="none" height="48" id="Layer" rx="2.5" ry="2.5" style="stroke:#555555;stroke-width:0.5;" width="68" x="65.5" y="7"/><ellipse cx="80.5" cy="23" fill="#ADD1B2" rx="11" ry="11" style="stroke:#181818;stroke-width:1.0;"/><path d="M83.4688,28.6406 Q82.8906,28.9375 82.25,29.0781 Q81.6094,29.2344 80.9063,29.2344 Q78.4063,29.2344 77.0781,27.5938 Q75.7656,25.9375 75.7656,22.8125 Q75.7656,19.6875 77.0781,18.0313 Q78.4063,16.375 80.9063,16.375 Q81.6094,16.375 82.25,16.5313 Q82.9063,16.6875 83.4688,16.9844 L83.4688,19.7031 Q82.8438,19.125 82.25,18.8594 Q81.6563,18.5781 81.0313,18.5781 Q79.6875,18.5781 79,19.6563 Q78.3125,20.7188 78.3125,22.8125 Q78.3125,24.9063 79,25.9844 Q79.6875,27.0469 81.0313,27.0469 Q81.6563,27.0469 82.25,26.7813 Q82.8438,26.5 83.4688,25.9219 L83.4688,28.6406 Z " fill="#000000"/><text fill="#000000" font-family="sans-serif" font-size="14" lengthAdjust="spacing" textLength="36" x="94.5" y="27.8467">Layer</text><line style="stroke:#555555;stroke-width:0.5;" x1="66.5" x2="132.5" y1="39" y2="39"/><line style="stroke:#555555;stroke-width:0.5;" x1="66.5" x2="132.5" y1="47" y2="47"/></g><!--reverse link Layer to Icon Framework--><g id="link_Layer_Icon Framework"><path codeLine="20" d="M99.5,73.44 C99.5,89.01 99.5,92.6 99.5,114.76 " fill="none" id="Layer-backto-Icon Framework" style="stroke:#181818;stroke-width:1.0;"/><polygon fill="none" points="99.5,55.44,93.5,73.44,105.5,73.44,99.5,55.44" style="stroke:#181818;stroke-width:1.0;"/></g><!--SRC=[VP31QiCm38RlVWgHNZP6e9V1A3irB5jXZ45w7vwZjIQ95MILhMHvzzcXesbJAcECzN_IB-HHmEa6VQiD5jXgra8C2-Khw-AlWQpMtY-rgJPCErTcL0TWbWynmOXBv0DoFyGvafEJ0p0VuXnuGHrwJ0mVvl6e4ItKXWkV948Db9RHY2MdJEm2oSgGWpo0-4rS9T2fxijYNVQGBgdSmnf_11R1S-S5-IY-XOgGBuIjsnpJxrgs8HqVrNdHOaqFNOEofI3V5K_hZwZTt5vIdw-g6QCMZ4F5cIup_sf6OSNM1Tv7yCH_tE74UYIeNYMlUe-SmEDlcaxMf9Jw0m00]--></g></svg>