<?xml version="1.0" encoding="us-ascii" standalone="no"?><svg xmlns="http://www.w3.org/2000/svg" xmlns:xlink="http://www.w3.org/1999/xlink" contentStyleType="text/css" height="838px" preserveAspectRatio="none" style="width:312px;height:838px;background:#FFFFFF;" version="1.1" viewBox="0 0 312 838" width="312px" zoomAndPan="magnify"><defs/><g><!--class FakedArray--><g id="elem_FakedArray"><rect codeLine="8" fill="#FFFFFF" height="716.1719" id="FakedArray" rx="2.5" ry="2.5" style="stroke:#555555;stroke-width:0.5;" width="298" x="7" y="7"/><rect fill="#808080" height="32" rx="2.5" ry="2.5" style="stroke:#808080;stroke-width:0.5;" width="298" x="7" y="7"/><rect fill="#808080" height="2.5" style="stroke:#808080;stroke-width:0.5;" width="298" x="7" y="36.5"/><rect codeLine="8" fill="none" height="716.1719" id="FakedArray" rx="2.5" ry="2.5" style="stroke:#555555;stroke-width:0.5;" width="298" x="7" y="7"/><ellipse cx="113.75" cy="23" fill="#ADD1B2" rx="11" ry="11" style="stroke:#181818;stroke-width:1.0;"/><path d="M116.7188,28.6406 Q116.1406,28.9375 115.5,29.0781 Q114.8594,29.2344 114.1563,29.2344 Q111.6563,29.2344 110.3281,27.5938 Q109.0156,25.9375 109.0156,22.8125 Q109.0156,19.6875 110.3281,18.0313 Q111.6563,16.375 114.1563,16.375 Q114.8594,16.375 115.5,16.5313 Q116.1563,16.6875 116.7188,16.9844 L116.7188,19.7031 Q116.0938,19.125 115.5,18.8594 Q114.9063,18.5781 114.2813,18.5781 Q112.9375,18.5781 112.25,19.6563 Q111.5625,20.7188 111.5625,22.8125 Q111.5625,24.9063 112.25,25.9844 Q112.9375,27.0469 114.2813,27.0469 Q114.9063,27.0469 115.5,26.7813 Q116.0938,26.5 116.7188,25.9219 L116.7188,28.6406 Z " fill="#000000"/><text fill="#000000" font-family="sans-serif" font-size="14" lengthAdjust="spacing" textLength="76" x="134.25" y="27.8467">FakedArray</text><line style="stroke:#555555;stroke-width:0.5;" x1="8" x2="304" y1="39" y2="39"/><rect fill="none" height="6" style="stroke:#C82930;stroke-width:1.0;" width="6" x="15" y="49.6484"/><text fill="#000000" font-family="sans-serif" font-size="14" lengthAdjust="spacing" textLength="182" x="27" y="55.9951">Pointer Absolute Row : I32</text><rect fill="none" height="6" style="stroke:#C82930;stroke-width:1.0;" width="6" x="15" y="65.9453"/><text fill="#000000" font-family="sans-serif" font-size="14" lengthAdjust="spacing" textLength="174" x="27" y="72.292">Pointer Absolute Col : I32</text><rect fill="none" height="6" style="stroke:#C82930;stroke-width:1.0;" width="6" x="15" y="82.2422"/><text fill="#000000" font-family="sans-serif" font-size="14" lengthAdjust="spacing" textLength="148" x="27" y="88.5889">Pointer Absolute : I32</text><rect fill="none" height="6" style="stroke:#C82930;stroke-width:1.0;" width="6" x="15" y="98.5391"/><text fill="#000000" font-family="sans-serif" font-size="14" lengthAdjust="spacing" textLength="141" x="27" y="104.8857">Highlight Color : U32</text><rect fill="none" height="6" style="stroke:#C82930;stroke-width:1.0;" width="6" x="15" y="114.8359"/><text fill="#000000" font-family="sans-serif" font-size="14" lengthAdjust="spacing" textLength="216" x="27" y="121.1826">Cluster Refnum : kLVObjCluster</text><rect fill="none" height="6" style="stroke:#C82930;stroke-width:1.0;" width="6" x="15" y="131.1328"/><text fill="#000000" font-family="sans-serif" font-size="14" lengthAdjust="spacing" textLength="269" x="27" y="137.4795">Minimum # of selected Elements : U32</text><rect fill="none" height="6" style="stroke:#C82930;stroke-width:1.0;" width="6" x="15" y="147.4297"/><text fill="#000000" font-family="sans-serif" font-size="14" lengthAdjust="spacing" textLength="272" x="27" y="153.7764">Maximum # of selected Elements : U32</text><rect fill="none" height="6" style="stroke:#C82930;stroke-width:1.0;" width="6" x="15" y="163.7266"/><text fill="#000000" font-family="sans-serif" font-size="14" lengthAdjust="spacing" textLength="88" x="27" y="170.0732"># Rows : I32</text><rect fill="none" height="6" style="stroke:#C82930;stroke-width:1.0;" width="6" x="15" y="180.0234"/><text fill="#000000" font-family="sans-serif" font-size="14" lengthAdjust="spacing" textLength="80" x="27" y="186.3701"># Cols : I32</text><rect fill="none" height="6" style="stroke:#C82930;stroke-width:1.0;" width="6" x="15" y="196.3203"/><text fill="#000000" font-family="sans-serif" font-size="14" lengthAdjust="spacing" textLength="92" x="27" y="202.667">Data : Variant</text><rect fill="none" height="6" style="stroke:#C82930;stroke-width:1.0;" width="6" x="15" y="212.6172"/><text fill="#000000" font-family="sans-serif" font-size="14" lengthAdjust="spacing" textLength="152" x="27" y="218.9639">Scrollbar Position : I32</text><rect fill="none" height="6" style="stroke:#C82930;stroke-width:1.0;" width="6" x="15" y="228.9141"/><text fill="#000000" font-family="sans-serif" font-size="14" lengthAdjust="spacing" textLength="191" x="27" y="235.2607">ToMoreSpecific : Enum U16</text><rect fill="none" height="6" style="stroke:#C82930;stroke-width:1.0;" width="6" x="15" y="245.2109"/><text fill="#000000" font-family="sans-serif" font-size="14" lengthAdjust="spacing" textLength="137" x="27" y="251.5576">Active Data : Variant</text><rect fill="none" height="6" style="stroke:#C82930;stroke-width:1.0;" width="6" x="15" y="261.5078"/><text fill="#000000" font-family="sans-serif" font-size="14" lengthAdjust="spacing" textLength="221" x="27" y="267.8545">Old CTL Refnum : kLVObjControl</text><rect fill="none" height="6" style="stroke:#C82930;stroke-width:1.0;" width="6" x="15" y="277.8047"/><text fill="#000000" font-family="sans-serif" font-size="14" lengthAdjust="spacing" textLength="155" x="27" y="284.1514">Layer.lvclass : LV Class</text><line style="stroke:#555555;stroke-width:0.5;" x1="8" x2="304" y1="291.4531" y2="291.4531"/><ellipse cx="18" cy="305.1016" fill="#84BE84" rx="3" ry="3" style="stroke:#038048;stroke-width:1.0;"/><text fill="#000000" font-family="sans-serif" font-size="14" lengthAdjust="spacing" text-decoration="underline" textLength="87" x="27" y="308.4482">ResetColor()</text><ellipse cx="18" cy="321.3984" fill="#84BE84" rx="3" ry="3" style="stroke:#038048;stroke-width:1.0;"/><text fill="#000000" font-family="sans-serif" font-size="14" lengthAdjust="spacing" text-decoration="underline" textLength="211" x="27" y="324.7451">SetActiveData_LoadedFromVI()</text><ellipse cx="18" cy="337.6953" fill="#84BE84" rx="3" ry="3" style="stroke:#038048;stroke-width:1.0;"/><text fill="#000000" font-family="sans-serif" font-size="14" lengthAdjust="spacing" text-decoration="underline" textLength="144" x="27" y="341.042">Initialize FakedArray()</text><ellipse cx="18" cy="353.9922" fill="#84BE84" rx="3" ry="3" style="stroke:#038048;stroke-width:1.0;"/><text fill="#000000" font-family="sans-serif" font-size="14" lengthAdjust="spacing" text-decoration="underline" textLength="250" x="27" y="357.3389">ClusterRef_2_DisplayTemplatesRef()</text><ellipse cx="18" cy="370.2891" fill="#84BE84" rx="3" ry="3" style="stroke:#038048;stroke-width:1.0;"/><text fill="#000000" font-family="sans-serif" font-size="14" lengthAdjust="spacing" text-decoration="underline" textLength="108" x="27" y="373.6357">ArrowUpDown()</text><ellipse cx="18" cy="386.5859" fill="#84BE84" rx="3" ry="3" style="stroke:#038048;stroke-width:1.0;"/><text fill="#000000" font-family="sans-serif" font-size="14" lengthAdjust="spacing" text-decoration="underline" textLength="200" x="27" y="389.9326">Process Template Graphics()</text><ellipse cx="18" cy="402.8828" fill="#84BE84" rx="3" ry="3" style="stroke:#038048;stroke-width:1.0;"/><text fill="#000000" font-family="sans-serif" font-size="14" lengthAdjust="spacing" text-decoration="underline" textLength="107" x="27" y="406.2295">GetReference()</text><ellipse cx="18" cy="419.1797" fill="#84BE84" rx="3" ry="3" style="stroke:#038048;stroke-width:1.0;"/><text fill="#000000" font-family="sans-serif" font-size="14" lengthAdjust="spacing" text-decoration="underline" textLength="119" x="27" y="422.5264">UpdateScrollbar()</text><ellipse cx="18" cy="435.4766" fill="#84BE84" rx="3" ry="3" style="stroke:#038048;stroke-width:1.0;"/><text fill="#000000" font-family="sans-serif" font-size="14" lengthAdjust="spacing" text-decoration="underline" textLength="167" x="27" y="438.8232">Get Pointer From Label()</text><ellipse cx="18" cy="451.7734" fill="#84BE84" rx="3" ry="3" style="stroke:#038048;stroke-width:1.0;"/><text fill="#000000" font-family="sans-serif" font-size="14" lengthAdjust="spacing" text-decoration="underline" textLength="259" x="27" y="455.1201">Templates_Set Active Data BG Color()</text><ellipse cx="18" cy="468.0703" fill="#84BE84" rx="3" ry="3" style="stroke:#038048;stroke-width:1.0;"/><text fill="#000000" font-family="sans-serif" font-size="14" lengthAdjust="spacing" text-decoration="underline" textLength="222" x="27" y="471.417">Layer_Set Active Data BG Color()</text><ellipse cx="18" cy="484.3672" fill="#84BE84" rx="3" ry="3" style="stroke:#038048;stroke-width:1.0;"/><text fill="#000000" font-family="sans-serif" font-size="14" lengthAdjust="spacing" text-decoration="underline" textLength="187" x="27" y="487.7139">Get Cluster Label Number()</text><ellipse cx="18" cy="500.6641" fill="#84BE84" rx="3" ry="3" style="stroke:#038048;stroke-width:1.0;"/><text fill="#000000" font-family="sans-serif" font-size="14" lengthAdjust="spacing" text-decoration="underline" textLength="184" x="27" y="504.0107">Layer_Get Active Clusters()</text><ellipse cx="18" cy="516.9609" fill="#84BE84" rx="3" ry="3" style="stroke:#038048;stroke-width:1.0;"/><text fill="#000000" font-family="sans-serif" font-size="14" lengthAdjust="spacing" textLength="107" x="27" y="520.3076">Ensure Visible()</text><ellipse cx="18" cy="533.2578" fill="#84BE84" rx="3" ry="3" style="stroke:#038048;stroke-width:1.0;"/><text fill="#000000" font-family="sans-serif" font-size="14" lengthAdjust="spacing" textLength="153" x="27" y="536.6045">UpdateSelectedData()</text><ellipse cx="18" cy="549.5547" fill="#84BE84" rx="3" ry="3" style="stroke:#038048;stroke-width:1.0;"/><text fill="#000000" font-family="sans-serif" font-size="14" lengthAdjust="spacing" textLength="127" x="27" y="552.9014">SetActiveGraphic()</text><ellipse cx="18" cy="565.8516" fill="#84BE84" rx="3" ry="3" style="stroke:#038048;stroke-width:1.0;"/><text fill="#000000" font-family="sans-serif" font-size="14" lengthAdjust="spacing" textLength="136" x="27" y="569.1982">UpdateVisibleData()</text><ellipse cx="18" cy="582.1484" fill="#84BE84" rx="3" ry="3" style="stroke:#038048;stroke-width:1.0;"/><text fill="#000000" font-family="sans-serif" font-size="14" lengthAdjust="spacing" textLength="76" x="27" y="585.4951">SET_Data()</text><ellipse cx="18" cy="598.4453" fill="#84BE84" rx="3" ry="3" style="stroke:#038048;stroke-width:1.0;"/><text fill="#000000" font-family="sans-serif" font-size="14" lengthAdjust="spacing" textLength="158" x="27" y="601.792">SET_ScrollbarPosition()</text><ellipse cx="18" cy="614.7422" fill="#84BE84" rx="3" ry="3" style="stroke:#038048;stroke-width:1.0;"/><text fill="#000000" font-family="sans-serif" font-size="14" lengthAdjust="spacing" textLength="117" x="27" y="618.0889">SET_ActiveData()</text><ellipse cx="18" cy="631.0391" fill="#84BE84" rx="3" ry="3" style="stroke:#038048;stroke-width:1.0;"/><text fill="#000000" font-family="sans-serif" font-size="14" lengthAdjust="spacing" textLength="133" x="27" y="634.3857">GET_SupportData()</text><ellipse cx="18" cy="647.3359" fill="#84BE84" rx="3" ry="3" style="stroke:#038048;stroke-width:1.0;"/><text fill="#000000" font-family="sans-serif" font-size="14" lengthAdjust="spacing" textLength="75" x="27" y="650.6826">GET_Icon()</text><ellipse cx="18" cy="663.6328" fill="#84BE84" rx="3" ry="3" style="stroke:#038048;stroke-width:1.0;"/><text fill="#000000" font-family="sans-serif" font-size="14" lengthAdjust="spacing" textLength="119" x="27" y="666.9795">GET_ActiveData()</text><ellipse cx="18" cy="679.9297" fill="#84BE84" rx="3" ry="3" style="stroke:#038048;stroke-width:1.0;"/><text fill="#000000" font-family="sans-serif" font-size="14" lengthAdjust="spacing" textLength="164" x="27" y="683.2764">GET_Scrollbar Position()</text><ellipse cx="18" cy="696.2266" fill="#84BE84" rx="3" ry="3" style="stroke:#038048;stroke-width:1.0;"/><text fill="#000000" font-family="sans-serif" font-size="14" lengthAdjust="spacing" textLength="93" x="27" y="699.5732">GET_AllData()</text><ellipse cx="18" cy="712.5234" fill="#84BE84" rx="3" ry="3" style="stroke:#038048;stroke-width:1.0;"/><text fill="#000000" font-family="sans-serif" font-size="14" lengthAdjust="spacing" textLength="114" x="27" y="715.8701">GET_RowsCols()</text></g><!--class Layer--><g id="elem_Layer"><rect fill="#FFFFFF" height="48" id="Layer" rx="2.5" ry="2.5" style="stroke:#555555;stroke-width:0.5;" width="68" x="122" y="783.17"/><rect fill="#808080" height="32" rx="2.5" ry="2.5" style="stroke:#808080;stroke-width:0.5;" width="68" x="122" y="783.17"/><rect fill="#808080" height="2.5" style="stroke:#808080;stroke-width:0.5;" width="68" x="122" y="812.67"/><rect fill="none" height="48" id="Layer" rx="2.5" ry="2.5" style="stroke:#555555;stroke-width:0.5;" width="68" x="122" y="783.17"/><ellipse cx="137" cy="799.17" fill="#ADD1B2" rx="11" ry="11" style="stroke:#181818;stroke-width:1.0;"/><path d="M139.9688,804.8106 Q139.3906,805.1075 138.75,805.2481 Q138.1094,805.4044 137.4063,805.4044 Q134.9063,805.4044 133.5781,803.7638 Q132.2656,802.1075 132.2656,798.9825 Q132.2656,795.8575 133.5781,794.2013 Q134.9063,792.545 137.4063,792.545 Q138.1094,792.545 138.75,792.7013 Q139.4063,792.8575 139.9688,793.1544 L139.9688,795.8731 Q139.3438,795.295 138.75,795.0294 Q138.1563,794.7481 137.5313,794.7481 Q136.1875,794.7481 135.5,795.8263 Q134.8125,796.8888 134.8125,798.9825 Q134.8125,801.0763 135.5,802.1544 Q136.1875,803.2169 137.5313,803.2169 Q138.1563,803.2169 138.75,802.9513 Q139.3438,802.67 139.9688,802.0919 L139.9688,804.8106 Z " fill="#000000"/><text fill="#000000" font-family="sans-serif" font-size="14" lengthAdjust="spacing" textLength="36" x="151" y="804.0167">Layer</text><line style="stroke:#555555;stroke-width:0.5;" x1="123" x2="189" y1="815.17" y2="815.17"/><line style="stroke:#555555;stroke-width:0.5;" x1="123" x2="189" y1="823.17" y2="823.17"/></g><!--reverse link FakedArray to Layer--><g id="link_FakedArray_Layer"><path codeLine="52" d="M156,735.65 C156,759.85 156,768.35 156,782.86 " fill="none" id="FakedArray-backto-Layer" style="stroke:#181818;stroke-width:1.0;"/><polygon fill="#181818" points="156,723.65,152,729.65,156,735.65,160,729.65,156,723.65" style="stroke:#181818;stroke-width:1.0;"/></g><!--SRC=[bPHPZzem483Vyoj6yD93LDkjMbMyiLoB15t4zOgSP5XS73kodQKKyTzt70A19CjgWwA8cM_kiGrQa2n24xC0fnWppQpIqFJCXaltBuAsOCOyi63ph5KYmxOI1DHxwLF2b0vHPyZFz2aYFILj1jobJn5uH4O-IW5_txcVTq5R5TCBlh9MHH1oZO7bIdg1ymAr7jjWsDAQxMgmz_OhZY8yG6EikBIeeUKR9HABC55RQCBWn_qDXd9ubode7_dpMj1huLX04-QNwhP8Z3EVu4ec4MatmyMJ_pSJvzo8InuHK0Ur0eE2QiGGkW8ZbDOKlOxOlm_GTLUxAIPUTmcNf1rc6SaMJ7CcRIwV1be9uJCDOsMuwt_HSgP6IkCqne2lU43QhYju_lrNZhHeS2y8RyLu4Y6qPyDIhsYJA7ZE3TaEzJVnSbo09WmNnutoziOoouC3x2EqQqNirmaQFExXfyzL-YdQOrOkgULGqKw6FQsYnQ2Q7qWgdWd-7o5Vl6eqcp5LixnVThY91TlDCAAFHKFIQYjogBRpkAEsiXeOQnKWrNro1NtDuZKFJ3NUHqknKACCi9gOno6vEG_uJJTmEWgkFp1aFefgzbpaaheBbqD_wCEDMQHp_Q2Do-jqnjAKu4yI-NWpGZ-Fa9cclJjJNMaIZR3WXli2hrHPhx8Jv_AxKf-tAPj9XMtcjMpQdIqhXUV1d0vUYSWN-4hLTyP972jjAtM3eE2h_uwlqXLGjXQYqjJTF-ws8OLtyAwkx2-D1jJIkTGypti5]--></g></svg>